<svg width="19" height="18" viewBox="0 0 19 18" fill="none" xmlns="http://www.w3.org/2000/svg">
<path d="M12.2962 5.64135L15.2397 2.69786M16.9217 1.01587L15.2397 2.69786L16.9217 1.01587ZM8.8397 9.09784C9.27394 9.5263 9.61913 10.0364 9.85541 10.5988C10.0917 11.1613 10.2144 11.7649 10.2164 12.3749C10.2185 12.9849 10.0998 13.5893 9.86732 14.1533C9.63481 14.7173 9.29304 15.2297 8.86168 15.6611C8.43032 16.0925 7.9179 16.4342 7.35391 16.6667C6.78992 16.8992 6.18551 17.0179 5.57548 17.0158C4.96545 17.0138 4.36185 16.8911 3.79943 16.6548C3.23701 16.4185 2.72689 16.0734 2.29843 15.6391C1.45586 14.7667 0.989636 13.5983 1.00017 12.3855C1.01071 11.1728 1.49717 10.0126 2.35477 9.15503C3.21237 8.29743 4.3725 7.81097 5.58529 7.80043C6.79807 7.78989 7.96648 8.25612 8.83885 9.09868L8.8397 9.09784ZM8.8397 9.09784L12.2962 5.64135L8.8397 9.09784ZM12.2962 5.64135L14.8192 8.16434L17.7627 5.22085L15.2397 2.69786L12.2962 5.64135Z" stroke="currentColor" stroke-linecap="round" stroke-linejoin="round"/>
</svg>
