<svg width="18" height="18" viewBox="0 0 18 18" fill="none" xmlns="http://www.w3.org/2000/svg">
<path d="M4.2 6.61587V1.01587H13.8V6.61587M4.2 13.8159H2.6C2.17565 13.8159 1.76869 13.6473 1.46863 13.3472C1.16857 13.0472 1 12.6402 1 12.2159V8.21587C1 7.79152 1.16857 7.38456 1.46863 7.0845C1.76869 6.78444 2.17565 6.61587 2.6 6.61587H15.4C15.8243 6.61587 16.2313 6.78444 16.5314 7.0845C16.8314 7.38456 17 7.79152 17 8.21587V12.2159C17 12.6402 16.8314 13.0472 16.5314 13.3472C16.2313 13.6473 15.8243 13.8159 15.4 13.8159H13.8M4.2 10.6159H13.8V17.0159H4.2V10.6159Z" stroke="currentColor" stroke-linecap="round" stroke-linejoin="round"/>
</svg>
