<svg width="0" height="0" class="hidden">
  <symbol fill="none" xmlns="http://www.w3.org/2000/svg" viewBox="0 0 18 14" id="email">
    <path d="M17 2.21588C17 1.33588 16.28 0.615875 15.4 0.615875H2.6C1.72 0.615875 1 1.33588 1 2.21588M17 2.21588V11.8159C17 12.6959 16.28 13.4159 15.4 13.4159H2.6C1.72 13.4159 1 12.6959 1 11.8159V2.21588M17 2.21588L9 7.81588L1 2.21588" stroke="currentColor" stroke-linecap="round" stroke-linejoin="round"></path>
  </symbol>
  <symbol fill="none" xmlns="http://www.w3.org/2000/svg" viewBox="0 0 18 18" id="fax">
    <path d="M4.2 6.61587V1.01587H13.8V6.61587M4.2 13.8159H2.6C2.17565 13.8159 1.76869 13.6473 1.46863 13.3472C1.16857 13.0472 1 12.6402 1 12.2159V8.21587C1 7.79152 1.16857 7.38456 1.46863 7.0845C1.76869 6.78444 2.17565 6.61587 2.6 6.61587H15.4C15.8243 6.61587 16.2313 6.78444 16.5314 7.0845C16.8314 7.38456 17 7.79152 17 8.21587V12.2159C17 12.6402 16.8314 13.0472 16.5314 13.3472C16.2313 13.6473 15.8243 13.8159 15.4 13.8159H13.8M4.2 10.6159H13.8V17.0159H4.2V10.6159Z" stroke="currentColor" stroke-linecap="round" stroke-linejoin="round"></path>
  </symbol>
  <symbol fill="none" xmlns="http://www.w3.org/2000/svg" viewBox="0 0 18 18" id="phone">
    <path d="M16.9995 13.0029V15.4163C17.0004 15.6403 16.9545 15.8621 16.8648 16.0674C16.775 16.2727 16.6434 16.4569 16.4783 16.6084C16.3132 16.7599 16.1183 16.8752 15.906 16.947C15.6938 17.0187 15.4689 17.0454 15.2457 17.0252C12.7702 16.7562 10.3923 15.9103 8.30312 14.5555C6.35937 13.3204 4.71141 11.6724 3.47627 9.72864C2.11669 7.62993 1.27059 5.24046 1.00653 2.75383C0.986426 2.53137 1.01286 2.30716 1.08416 2.09547C1.15546 1.88379 1.27005 1.68926 1.42065 1.52429C1.57124 1.35932 1.75454 1.22751 1.95886 1.13726C2.16319 1.04701 2.38407 1.00029 2.60744 1.00008H5.02086C5.41128 0.996235 5.78977 1.13449 6.0858 1.38907C6.38182 1.64365 6.57517 1.99718 6.62981 2.38378C6.73168 3.15613 6.92059 3.91447 7.19295 4.64435C7.30118 4.93229 7.32461 5.24523 7.26045 5.54607C7.19629 5.84692 7.04723 6.12307 6.83093 6.3418L5.80925 7.36348C6.95446 9.37752 8.62206 11.0451 10.6361 12.1903L11.6578 11.1687C11.8765 10.9524 12.1527 10.8033 12.4535 10.7391C12.7544 10.675 13.0673 10.6984 13.3552 10.8066C14.0851 11.079 14.8435 11.2679 15.6158 11.3698C16.0066 11.4249 16.3635 11.6217 16.6186 11.9228C16.8737 12.2239 17.0093 12.6083 16.9995 13.0029Z" stroke="currentColor" stroke-linecap="round" stroke-linejoin="round"></path>
  </symbol>
  <symbol fill="none" xmlns="http://www.w3.org/2000/svg" viewBox="0 0 18 18" id="subscribe">
    <path d="M8.15659 2.70269H2.59035C2.16857 2.70269 1.76405 2.87025 1.4658 3.1685C1.16755 3.46675 1 3.87126 1 4.29305V15.4255C1 15.8473 1.16755 16.2518 1.4658 16.5501C1.76405 16.8483 2.16857 17.0159 2.59035 17.0159H13.7228C14.1446 17.0159 14.5491 16.8483 14.8474 16.5501C15.1456 16.2518 15.3132 15.8473 15.3132 15.4255V9.85928M14.1204 1.50993C14.4368 1.19359 14.8658 1.01587 15.3132 1.01587C15.7605 1.01587 16.1896 1.19359 16.5059 1.50993C16.8223 1.82627 17 2.25532 17 2.70269C17 3.15007 16.8223 3.57912 16.5059 3.89546L8.95176 11.4496L5.77106 12.2448L6.56624 9.0641L14.1204 1.50993Z" stroke="currentColor" stroke-linecap="round" stroke-linejoin="round"></path>
  </symbol>
  <symbol fill="none" xmlns="http://www.w3.org/2000/svg" viewBox="0 0 19 18" id="connect">
    <path d="M12.2962 5.64135L15.2397 2.69786M16.9217 1.01587L15.2397 2.69786L16.9217 1.01587ZM8.8397 9.09784C9.27394 9.5263 9.61913 10.0364 9.85541 10.5988C10.0917 11.1613 10.2144 11.7649 10.2164 12.3749C10.2185 12.9849 10.0998 13.5893 9.86732 14.1533C9.63481 14.7173 9.29304 15.2297 8.86168 15.6611C8.43032 16.0925 7.9179 16.4342 7.35391 16.6667C6.78992 16.8992 6.18551 17.0179 5.57548 17.0158C4.96545 17.0138 4.36185 16.8911 3.79943 16.6548C3.23701 16.4185 2.72689 16.0734 2.29843 15.6391C1.45586 14.7667 0.989636 13.5983 1.00017 12.3855C1.01071 11.1728 1.49717 10.0126 2.35477 9.15503C3.21237 8.29743 4.3725 7.81097 5.58529 7.80043C6.79807 7.78989 7.96648 8.25612 8.83885 9.09868L8.8397 9.09784ZM8.8397 9.09784L12.2962 5.64135L8.8397 9.09784ZM12.2962 5.64135L14.8192 8.16434L17.7627 5.22085L15.2397 2.69786L12.2962 5.64135Z" stroke="currentColor" stroke-linecap="round" stroke-linejoin="round"></path>
  </symbol>
</svg>