<svg width="18" height="18" viewBox="0 0 18 18" fill="none" xmlns="http://www.w3.org/2000/svg">
<path d="M8.15659 2.70269H2.59035C2.16857 2.70269 1.76405 2.87025 1.4658 3.1685C1.16755 3.46675 1 3.87126 1 4.29305V15.4255C1 15.8473 1.16755 16.2518 1.4658 16.5501C1.76405 16.8483 2.16857 17.0159 2.59035 17.0159H13.7228C14.1446 17.0159 14.5491 16.8483 14.8474 16.5501C15.1456 16.2518 15.3132 15.8473 15.3132 15.4255V9.85928M14.1204 1.50993C14.4368 1.19359 14.8658 1.01587 15.3132 1.01587C15.7605 1.01587 16.1896 1.19359 16.5059 1.50993C16.8223 1.82627 17 2.25532 17 2.70269C17 3.15007 16.8223 3.57912 16.5059 3.89546L8.95176 11.4496L5.77106 12.2448L6.56624 9.0641L14.1204 1.50993Z" stroke="currentColor" stroke-linecap="round" stroke-linejoin="round"/>
</svg>
